<svg xmlns:cc="http://web.resource.org/cc/" xmlns:dc="http://purl.org/dc/elements/1.1/" xmlns:inkscape="http://www.inkscape.org/namespaces/inkscape" xmlns:rdf="http://www.w3.org/1999/02/22-rdf-syntax-ns#" xmlns:sodipodi="http://sodipodi.sourceforge.net/DTD/sodipodi-0.dtd" xmlns:svg="http://www.w3.org/2000/svg" xmlns="http://www.w3.org/2000/svg" xmlns:xlink="http://www.w3.org/1999/xlink" version="1.1" id="svg2" inkscape:output_extension="org.inkscape.output.svg.inkscape" inkscape:version="0.45.1" sodipodi:docbase="C:\Documents and Settings\Alex Broersma.D2KY7761\Desktop" sodipodi:docname="Apc-logo.svg" sodipodi:version="0.32" x="0px" y="0px" viewBox="0 0 390 99.5" style="enable-background:new 0 0 390 99.5;" xml:space="preserve">
<style type="text/css">
	.st0{fill:#FFFFFF;}
</style>
<sodipodi:namedview bordercolor="#666666" borderopacity="1.0" gridtolerance="10.0" guidetolerance="10.0" id="base" inkscape:current-layer="svg2" inkscape:cx="66.6117" inkscape:cy="44.95278" inkscape:pageopacity="0.0" inkscape:pageshadow="2" inkscape:window-height="844" inkscape:window-width="1440" inkscape:window-x="-4" inkscape:window-y="-4" inkscape:zoom="1.6897436" objecttolerance="10.0" pagecolor="#ffffff">
	</sodipodi:namedview>
<path id="path57" class="st0" d="M300.4,78.4c0-1.8,1.4-3.1,3.1-3.1c1.7,0,3.1,1.3,3.1,3.1c0,1.8-1.4,3.1-3.1,3.1  C301.8,81.4,300.4,80.1,300.4,78.4 M303.5,80.9c1.4,0,2.5-1.1,2.5-2.6c0-1.5-1.1-2.5-2.5-2.5c-1.4,0-2.5,1.1-2.5,2.5  C301,79.8,302.1,80.9,303.5,80.9 M302.8,80.1h-0.5v-3.5h1.3c0.8,0,1.2,0.3,1.2,1c0,0.6-0.4,0.9-0.9,1l1,1.6h-0.6l-0.9-1.5h-0.6V80.1  l0.6-2c0.5,0,0.9,0,0.9-0.6c0-0.4-0.4-0.5-0.8-0.5h-0.7v1.1h0.6L302.8,80.1"/>
<path id="path51" class="st0" d="M68.1,99.5L55.1,76.2h47.2L78.6,26L43.8,99.5H2.2L56.7,0.3h43.8l54.1,99.2H68.1"/>
<path id="path53" class="st0" d="M154.8,41.9h51.9c13.1,0,18.3-0.8,18.3-10c0-8.8-4.2-9.8-17.7-9.8h-52.7L142.9,0.3h73.2  c34.6,0,47.4,15.1,47.4,31.1c0,15.5-11.9,32.5-49.9,32.5h-17.3v35.6h-41.8V41.9H154.8"/>
<path id="path55" class="st0" d="M371.9,93.5c-12.5,5.8-27.9,8.6-44.4,8.6c-49.9,0-66.9-27.7-66.9-50.6c0-28.9,25.3-51.2,69-51.2  c15.9,0,29.8,2.4,41.4,6.8v28.7c-12.1-6.4-22.5-9.2-34.8-9.2c-20.9,0-38,9.4-38,24.5c0,14.9,17.5,24.5,38.4,24.5  c12.1,0,21.9-2.4,35.4-8.6V93.5"/>
<path id="path2401" class="st0" d="M376.3,8.9c0-2.6,2.1-4.5,4.6-4.5c2.5,0,4.6,1.9,4.6,4.5c0,2.6-2.1,4.6-4.6,4.6  C378.4,13.4,376.3,11.5,376.3,8.9 M381,12.7c2.1,0,3.7-1.6,3.7-3.8c0-2.2-1.6-3.8-3.7-3.8c-2.1,0-3.7,1.6-3.7,3.8  C377.2,11.1,378.9,12.7,381,12.7 M380,11.5h-0.8V6.3h2c1.2,0,1.9,0.5,1.9,1.5c0,0.9-0.6,1.3-1.4,1.4l1.5,2.3h-0.9l-1.4-2.3H380V11.5  l1-2.9c0.7,0,1.3,0,1.3-0.9c0-0.7-0.6-0.8-1.2-0.8H380v1.6h1L380,11.5"/>
</svg>