<svg xmlns:cc="http://web.resource.org/cc/" xmlns:dc="http://purl.org/dc/elements/1.1/" xmlns:inkscape="http://www.inkscape.org/namespaces/inkscape" xmlns:rdf="http://www.w3.org/1999/02/22-rdf-syntax-ns#" xmlns:sodipodi="http://sodipodi.sourceforge.net/DTD/sodipodi-0.dtd" xmlns:svg="http://www.w3.org/2000/svg" xmlns="http://www.w3.org/2000/svg" xmlns:xlink="http://www.w3.org/1999/xlink" version="1.1" id="svg2211" inkscape:output_extension="org.inkscape.output.svg.inkscape" inkscape:version="0.45.1" sodipodi:docbase="C:\Users\Chris\Desktop\SVGs" sodipodi:docname="Corel logo.png.svg" sodipodi:version="0.32" x="0px" y="0px" viewBox="0 0 1850 343" style="enable-background:new 0 0 1850 343;" xml:space="preserve">
<style type="text/css">
	.st0{fill:#FFFFFF;}
</style>
<sodipodi:namedview bordercolor="#666666" borderopacity="1.0" gridtolerance="10.0" guidetolerance="10.0" id="base" inkscape:current-layer="svg2211" inkscape:cx="925" inkscape:cy="171.5" inkscape:pageopacity="0.0" inkscape:pageshadow="2" inkscape:window-height="575" inkscape:window-width="765" inkscape:window-x="115" inkscape:window-y="115" inkscape:zoom="0.36756757" objecttolerance="10.0" pagecolor="#ffffff">
	</sodipodi:namedview>
<path id="path2220" class="st0" d="M529.4,341c-30.5-2.4-57.2-9.2-78.4-19.9c-32.4-16.3-56.2-43.8-67.5-77.9  c-8.7-26.3-9.4-46.9-2.5-74.2c11.4-45.2,40.4-83.5,86.6-114.4C496.8,35,526.6,22,563.5,12.7c42.6-10.7,75.2-11.3,118.4-2.5  C756.3,25.4,799.2,64.1,807,123.1c1.6,12.4,0.6,37.2-2.1,50c-7.2,34.5-26.7,67.6-57.2,97.1c-40.4,39.1-94.3,62.6-159.3,69.4  C577.7,340.6,537.7,341.6,529.4,341z M594.2,260.1c34.9-4.6,62.5-17.8,83.8-40.2c13-13.7,21.9-29,25.9-44.8c2.6-10,2.8-27.1,0.5-36  c-7.7-29.4-33.1-47.7-75.1-54c-18-2.7-32.3-1.8-53.1,3.5c-34.7,8.8-66.1,29-82.5,53.2c-13,19.1-18.4,41.2-14.4,59.4  c2.1,9.6,8.9,24.1,14.6,30.9c12.3,14.8,30.7,24.5,52.8,28C558.5,261.9,580.4,261.9,594.2,260.1z M146.9,337.5  c-67.3-12-115.3-47.6-129.3-96c-3.3-11.3-4.7-23.2-4.7-39.4c0-25,3.6-44.2,12.4-65.9C52.9,68.2,124.2,18.1,211.9,4.9  C222,3.4,235,3.2,317.6,2.8c51.8-0.2,94.2-0.2,94.2-0.1c0,0.2-4.4,17.6-9.9,38.8l-9.9,38.5l-82.4,0.5c-81.2,0.5-82.6,0.6-93.3,2.8  c-33.5,7.1-61.4,20.8-79.6,39.2c-10.1,10.3-16.7,20.7-21.1,34c-2.8,8.4-3.3,11.1-3.7,23.6c-0.7,20.2,2.1,32.1,10.8,45.8  c7.7,12.3,20.7,21.9,37.3,27.8c16,5.7,17.4,5.8,107.8,5.8H351l-0.6,3.2c-0.3,1.8-4.3,19.7-8.8,39.8l-8.2,36.5l-88,0.2  C163.4,339.4,156.7,339.3,146.9,337.5z M757.9,338.8c0-2.1,28.9-58.7,36.2-70.8c31.8-53,61.8-84.5,97.7-102.4  c12.7-6.3,23.4-9.4,52.3-15c37.7-7.3,84.7-17.3,103.4-21.9c27.6-6.9,39-11.3,43.9-17.1c2.3-2.8,2.6-4,2.6-10.6  c0-9-1.8-13.7-6.2-16.4c-3.3-2-4.7-2-122.5-2l-119.2,0l-0.6-3.8c-3-17.9-13.7-34.5-38.2-59.1c-8.9-9-16.3-16.5-16.3-16.8  c0-0.2,66.7-0.4,148.2-0.4c162.1,0,155.9-0.2,179.2,5.9c32.3,8.5,55.7,24.7,66.5,46.3c5.8,11.6,7.4,20.1,6.8,37.1  c-0.6,15.4-2.4,24.1-7.7,36.9c-9.4,22.5-31.1,44.4-59,59.5c-16.3,8.8-42.4,17.6-56.3,18.9c-12.8,1.2-14,5.8-2.9,11.2  c10.6,5.2,22.4,13.6,32.4,23c16.4,15.5,26.9,32.2,30.2,48.3c2.1,10.2,3,28,2.1,40.1l-0.7,9.8h-57.5h-57.5l0.6-2.6  c3.2-12.6,4.4-33.7,2.6-43.4c-2.8-14.9-32.4-44.1-56.1-55.5c-8.9-4.3-11.8-4.3-19.6-0.5c-17,8.5-42.5,43.2-65.4,89.2l-6.3,12.8  h-56.3C783.2,339.6,757.9,339.2,757.9,338.8z M1168.8,338.8c0-0.4,17-76.2,37.7-168.5l37.7-167.8h152.3c83.8,0,152.3,0.2,152.3,0.5  c0,0.5-15.2,70.9-16.5,76.3l-0.5,2.2h-103c-56.6,0-103,0.1-103,0.3s-2.5,12.6-5.5,27.7s-5.5,27.8-5.5,28.2c0,0.4,38.2,0.8,85,0.8  s85,0.3,85,0.8c0,0.4-3.5,16.6-7.8,36l-7.8,35.2l-86.1,0l-86.1,0l-5.2,24.3c-2.9,13.4-5.2,24.9-5.2,25.5c0,0.9,25.4,1.2,101.5,1.2  c96,0,101.5,0.1,101.4,1.8c0,1-3.8,18.4-8.3,38.8l-8.2,37l-152.2,0.3C1237.4,339.5,1168.9,339.2,1168.8,338.8z M1510.9,338.2  c0-0.9,70.1-302.7,77.5-333.4l0.5-2.2h49c46.2,0,49,0.1,48.5,1.8c-1,3.2-56.6,253-56.6,254.1c0,0.8,27.7,1.1,106,1.1  c58.3,0,106,0.2,106,0.5c0,0.6-13.2,61.9-15.6,72.7l-1.5,6.8h-156.9C1538.4,339.6,1510.9,339.3,1510.9,338.2z"/>
</svg>