<svg xmlns:cc="http://creativecommons.org/ns#" xmlns:dc="http://purl.org/dc/elements/1.1/" xmlns:rdf="http://www.w3.org/1999/02/22-rdf-syntax-ns#" xmlns:svg="http://www.w3.org/2000/svg" xmlns="http://www.w3.org/2000/svg" xmlns:xlink="http://www.w3.org/1999/xlink" version="1.1" id="svg2" x="0px" y="0px" viewBox="0 0 97.3 65.3" style="enable-background:new 0 0 97.3 65.3;" xml:space="preserve">
<style type="text/css">
	.st0{fill:#FFFFFF;}
</style>
<g id="g10" transform="matrix(1.3333333,0,0,-1.3333333,0,65.333333)">
	<g id="g12" transform="scale(0.1)">
		<path id="path14" class="st0" d="M342,61.6C199.7,48.4,51.4,69.1,30.7,180.3c-10.1,54.8,14.9,112.9,48,149.1v19.3    C19,296.3-13.4,230.1,5.3,151.9C29.1,51.6,156.3-5.3,350.6,13.6C427.5,21,528.1,45.8,598,84.2v54.5    C534.5,100.9,429.5,69.7,342,61.6z M716.8,349.9c-33.8,164.8-353.7,175.2-559.9,49.7v-13.9c206,105.9,498.2,105.3,524.8-46.5    c8.9-50.2-19.3-102.5-69.9-132.6v-39.4C672.6,189.5,735,261.6,716.8,349.9"/>
		<path id="path16" class="st0" d="M586.5,373.9h-37.3V207.8c0-19.4,9.4-36.4,37.3-39.1V373.9"/>
		<path id="path18" class="st0" d="M142.3,313.3h-37.4l0-108.5c0-19.6,9.5-36.5,37.4-39.1V313.3"/>
		<path id="path20" class="st0" d="M104.9,333.5h37.3v35.4h-37.3V333.5z"/>
		<path id="path22" class="st0" d="M365.7,167.3c-30.2,0-43,21-43,41.7v144.1h37v-39.9h27.8v-29.8h-27.8v-72.2    c0-8.4,4-13.1,12.8-13.1h15.1v-30.8H365.7"/>
		<path id="path24" class="st0" d="M433.8,228.7c0-18.9,11.8-32.8,32.8-32.8c16.4,0,24.5,4.5,34,13.9l22.8-21.8    c-14.6-14.5-30-23.3-57.1-23.3c-35.4,0-69.3,19.3-69.3,75.6c0,48.1,29.7,75.3,68.5,75.3c39.5,0,62.2-31.9,62.2-73.7v-13.4H433.8     M463.8,285.2c-12.7,0-22.4-6.5-26.5-15.3c-2.4-5.3-3.3-9.4-3.6-15.9h57C490,269.9,482.8,285.2,463.8,285.2"/>
		<path id="path26" class="st0" d="M242.7,283.4c10.9,0,15.4-5.4,15.4-14.1V167.1h37v102.4c0,20.8-11.1,43.7-43.6,43.7l-76.4,0    V167.1h37v116.3H242.7"/>
		<path id="path28" class="st0" d="M626.6,344.2c-8.2,0-14.8,6.6-14.8,14.9c0,8.2,6.6,14.8,14.8,14.8c8.2,0,14.9-6.6,14.9-14.8    C641.5,350.9,634.8,344.2,626.6,344.2z M626.6,371.5c-6.8,0-12.2-5.6-12.2-12.4c0-6.8,5.4-12.3,12.2-12.3    c6.8,0,12.4,5.5,12.4,12.3C639,365.9,633.4,371.5,626.6,371.5z M633.2,350.2h-2.8c-0.2,0-0.5,0.2-0.6,0.4l-3.8,6.4    c-0.1,0.2-0.4,0.3-0.5,0.3c0,0-0.6,0-1.1,0c-0.3,0-0.5,0-0.6,0v-6.4c0-0.3-0.2-0.7-0.6-0.7h-2.5c-0.3,0-0.6,0.4-0.6,0.7v16.1    c0,0.9,0.3,1.3,1.1,1.4c0.9,0.1,3.2,0.2,4.6,0.2c4.6,0,7.3-1.4,7.3-5.7v-0.3c0-2.7-1.3-4.1-3.4-4.7l3.9-6.6    c0.1-0.1,0.1-0.4,0.1-0.5C633.8,350.5,633.7,350.2,633.2,350.2z M629.6,362.9c0,1.8-1.1,2.4-3.5,2.4c-0.3,0-1.1,0-1.7,0    c-0.3,0-0.5,0-0.7,0v-5.1c0.4,0,2.1-0.1,2.4-0.1c2.4,0,3.5,0.8,3.5,2.5L629.6,362.9"/>
	</g>
</g>
</svg>