<svg xmlns="http://www.w3.org/2000/svg" xmlns:xlink="http://www.w3.org/1999/xlink" version="1.1" id="Слой_1" x="0px" y="0px" viewBox="0 0 147.2 36" style="enable-background:new 0 0 147.2 36;" xml:space="preserve">
<style type="text/css">
	.st0{fill:#FFFFFF;}
</style>
<path class="st0" d="M10.8,20.3V29c0,3.2,0.5,4.7,4,4.7V34H1.6v-0.3c4,0,3.4-4.2,3.4-7.4v-9.2c0-3.2,0.8-9.7-3.2-9.7V7.1h12.6v0.3  c-3.4,0-3.7,2.1-3.7,5.3v6.9h0.8c5-5,5.8-6.1,6.1-6.6c2.6-4.2,0.3-5.3-1.3-5.3V7.1h10.8v0.5c-1.8,0-5.3,2.6-7.4,4.2l-7.9,7.6  c10.8,0.5,10.5,6.1,11.6,10c0.8,2.4,1.3,3.7,3.7,4.2V34h-9.5C16.3,26.1,15.5,19.5,10.8,20.3L10.8,20.3z"/>
<path class="st0" d="M36.2,21.3c0,3.7,0.8,4.7,2.9,4.7v0.3H28V26c2.4,0,2.4-2.6,2.4-4.7v-9.7c0-2.6-0.5-4-2.6-4V7.1h8.4V21.3  L36.2,21.3z"/>
<path class="st0" d="M33.2,0c1.6,0,3.2,1.3,3.2,2.9s-1.6,3.2-3.2,3.2S30,4.5,30,2.9S31.7,0,33.2,0L33.2,0z"/>
<path class="st0" d="M47.9,9.5c1.8-2.6,3.2-2.6,5.3-2.6c5.5,0,5.8,3.7,5.8,7.1v7.4c0,3.7,0.5,4.7,2.6,4.7v0.3H50.8v-0.3  c2.1,0,2.1-1.6,2.1-4.7V14c0-2.6,0.3-6.1-1.8-6.1c-2.6,0-2.6,1.8-3.2,2.9v10.5c0,3.2,0,4.7,1.8,4.7v0.3H39.6V26  c2.1,0,2.4-1.6,2.4-4.7v-9.7c0-2.6-0.5-4-2.9-4V7.1h9L47.9,9.5L47.9,9.5z"/>
<path class="st0" d="M103.1,7.1h4l-0.8,1.3h-3.2V20c0,5.8,3.4,5.3,4.7,4l0.3,0.5c-3.2,2.4-5.3,1.8-6.1,1.8c-3.2,0-5-2.1-5-4.7V8.4  h-3.4l0,0c2.6-1.1,7.1-4.5,9-7.1h0.5L103.1,7.1L103.1,7.1z"/>
<path class="st0" d="M105.6,16.9c0-4.5,4.5-10,9.8-10c4.7,0,9.2,4.7,9.2,9.7c0,5.8-5,10-9.2,10C110.1,26.6,105.6,22.1,105.6,16.9  L105.6,16.9z M118.6,16.3c0-5.8,0-9.2-3.2-9.2c-3.4,0-3.2,4.5-3.2,9.2c0,5.8-0.3,10,3.2,10S118.6,22.1,118.6,16.3L118.6,16.3z"/>
<path class="st0" d="M132.1,9.5c2.1-2.6,3.4-2.6,5.5-2.6c5.3,0,5.8,3.7,5.8,7.1v7.4c0,3.7,0.5,4.7,2.6,4.7v0.3h-10.8v-0.3  c1.8,0,1.8-1.6,1.8-4.7V14c0-2.6,0.3-6.1-1.8-6.1c-2.4,0-2.4,1.8-3.2,2.9v10.5c0,3.2,0.3,4.7,2.1,4.7v0.3h-10.3V26  c2.1,0,2.4-1.6,2.4-4.7v-9.7c0-2.6-0.5-4-2.9-4V7.1h8.7L132.1,9.5L132.1,9.5z"/>
<path class="st0" d="M71.7,23.5c-0.5,0.8-1.3,3.2-4.5,3.2c-3.7,0-6.6-3.2-6.6-9.7c0-5.3,3.4-10,7.6-10c2.9,0,4,2.4,4,2.4v-2h9v0.3  c0,0-3.2-0.5-3.2,3.4v15c-0.3,4-1.8,6.6-9.2,8.7v-0.5C73.1,31.4,72.2,27.1,71.7,23.5L71.7,23.5z M72.2,16.1c0-4.5-0.3-8.7-3.2-8.7  c-2.1,0-2.6,3.4-2.6,9.5c0,5.3,0.5,8.7,2.6,8.7c1.8,0,3.2-4,3.2-7.9V16.1L72.2,16.1z"/>
<path class="st0" d="M79.1,20.3H82c-0.3,6.1,4,6.1,5,6.1c1.8,0,3.7-1.6,3.7-3.2c0-4.7-10.5-2.9-10.5-10.3c0-3.4,2.6-6.1,6.6-6.1  c6.3,0,7.1,3.7,7.1,5h-2.4c0.3-1.1-0.3-4.7-4.2-4.7c-3.4,0-3.2,2.6-3.2,2.9c0,4.7,11.3,2.9,11.3,10c0,3.4-3.2,6.3-7.1,6.6  C81.2,26.9,79.1,21.9,79.1,20.3L79.1,20.3z"/>
<polygon class="st0" points="28.8,27.9 33.8,27.9 33.8,28.7 31.7,28.7 31.7,34 30.5,34 30.5,28.7 28.8,28.7 "/>
<polygon class="st0" points="40.1,34 40.1,27.9 44.6,27.9 44.6,28.7 40.8,28.7 40.8,30.6 44.2,30.6 44.2,31.1 40.8,31.1 40.8,33.2   44.6,33.2 44.6,34 "/>
<path class="st0" d="M53.8,27.7c0.8,0,1.6,0.3,1.8,0.5c0.5,0.5,0.8,1.1,0.8,1.6h-0.8c0-0.5-0.3-0.8-0.5-1.1  c-0.3-0.3-0.8-0.3-1.3-0.3s-1.1,0.3-1.3,0.5c-0.5,0.5-0.5,1.1-0.5,2.1c0,0.5,0,1.1,0.5,1.6c0.3,0.5,0.8,0.5,1.3,0.5  c0.8,0,1.1,0,1.6-0.5c0-0.3,0.3-0.5,0.3-1.1h0.8c0,0.8-0.3,1.3-0.8,1.6c-0.3,0.5-1.1,0.8-1.8,0.8s-1.3-0.3-1.8-0.5  c-0.5-0.5-1.1-1.6-1.1-2.6c0-0.8,0.3-1.6,0.8-2.1C52.2,27.9,52.9,27.7,53.8,27.7L53.8,27.7z"/>
<polygon class="st0" points="62.9,34 62.9,27.9 63.8,27.9 63.8,30.3 67.2,30.3 67.2,27.9 68.1,27.9 68.1,34 67.2,34 67.2,31.1   63.8,31.1 63.8,34 "/>
<polygon class="st0" points="78.6,34 78.6,27.9 79.3,27.9 82.4,32.7 82.4,27.9 83.2,27.9 83.2,34 82.4,34 79.3,29 79.3,34 "/>
<path class="st0" d="M91.9,32.7c-0.3-0.5-0.5-1.1-0.5-1.6c0-1.1,0.3-1.6,0.5-2.1c0.5-0.3,1.1-0.5,1.6-0.5c0.8,0,1.3,0.3,1.6,0.5  c0.5,0.5,0.5,1.1,0.5,1.8c0,0.5,0,1.3-0.5,1.8c-0.3,0.3-0.8,0.8-1.6,0.8S92.2,33.2,91.9,32.7L91.9,32.7z M91.2,28.7  c-0.5,0.8-0.5,1.3-0.5,2.1c0,1.1,0.3,1.8,0.5,2.4c0.5,0.5,1.3,0.8,2.4,0.8s1.8-0.3,2.4-1.1c0.5-0.5,0.8-1.3,0.8-2.1  c0-0.8-0.3-1.6-0.8-2.1s-1.3-1.1-2.4-1.1S91.8,28.2,91.2,28.7L91.2,28.7z"/>
<polygon class="st0" points="103.9,34 103.9,27.9 104.6,27.9 104.6,33.2 107.8,33.2 107.8,34 "/>
<path class="st0" d="M115.6,32.7c-0.3-0.5-0.5-1.1-0.5-1.6c0-1.1,0.3-1.6,0.8-2.1c0.3-0.3,0.8-0.5,1.3-0.5c0.8,0,1.3,0.3,1.6,0.5  c0.5,0.5,0.8,1.1,0.8,1.8c0,0.5-0.3,1.3-0.5,1.8c-0.5,0.3-1.1,0.8-1.6,0.8C116.8,33.5,116.2,33.2,115.6,32.7L115.6,32.7z   M114.9,28.7c-0.3,0.8-0.5,1.3-0.5,2.1c0,1.1,0.3,1.8,0.8,2.4c0.5,0.5,1.3,0.8,2.1,0.8c1.1,0,1.8-0.3,2.4-1.1  c0.5-0.5,0.8-1.3,0.8-2.1c0-0.8-0.3-1.6-0.8-2.1s-1.3-1.1-2.4-1.1C116.2,27.7,115.4,28.2,114.9,28.7L114.9,28.7z"/>
<path class="st0" d="M130.1,27.7c0.8,0,1.3,0.3,1.6,0.5c0.5,0.3,1.1,0.8,1.1,1.6h-0.8c0-0.5-0.3-0.8-0.5-1.1s-0.8-0.3-1.3-0.3  s-1.1,0.3-1.3,0.5c-0.5,0.5-0.5,1.1-0.5,1.8c0,0.8,0,1.3,0.3,1.8c0.5,0.5,1.1,0.8,1.6,0.8c0.8,0,1.1-0.3,1.6-0.5  c0.3-0.3,0.5-0.8,0.5-1.6h-2.1v-0.8h2.9V34h-0.5l-0.3-0.8c-0.3,0.3-0.5,0.5-0.8,0.5c-0.3,0.3-0.8,0.3-1.3,0.3  c-0.8,0-1.3-0.3-1.8-0.5c-0.8-0.8-1.1-1.6-1.1-2.4c0-1.1,0.3-1.8,1.1-2.6C128.9,27.9,129.4,27.7,130.1,27.7L130.1,27.7z"/>
<polygon class="st0" points="142.4,31.6 139.9,27.9 140.9,27.9 142.6,30.8 144.4,27.9 145.4,27.9 143.1,31.6 143.1,34 142.4,34 "/>
<path class="st0" d="M143.9,6.6c0.1,0,0.3,0,0.3,0.2S144.1,7,143.9,7l0,0v0.5l0.3,0.5h0.4l-0.4-0.7c0.2,0,0.4-0.1,0.4-0.4  c0-0.4-0.2-0.5-0.7-0.5V6.6L143.9,6.6z M143.9,8.7V8.3c0.6,0,1.1-0.5,1.1-1.2s-0.5-1.2-1.1-1.2V5.6c0.8,0,1.5,0.6,1.5,1.5  S144.8,8.7,143.9,8.7L143.9,8.7z M143.6,7V6.6h0.3l0,0V6.3l0,0h-0.7V8h0.4V7.3h0.2l0.1,0.2V7H143.6L143.6,7z M143.9,5.6V6l0,0  c-0.6,0-1.1,0.5-1.1,1.2s0.5,1.2,1.1,1.2l0,0v0.4l0,0c-0.8,0-1.5-0.6-1.5-1.5C142.4,6.2,143.1,5.6,143.9,5.6  C143.9,5.6,143.9,5.6,143.9,5.6L143.9,5.6z"/>
</svg>