<svg xmlns="http://www.w3.org/2000/svg" xmlns:xlink="http://www.w3.org/1999/xlink" version="1.1" id="Слой_1" x="0px" y="0px" viewBox="0 0 496 202.7" style="enable-background:new 0 0 496 202.7;" xml:space="preserve">
<style type="text/css">
	.st0{fill:#FFFFFF;}
</style>
<path class="st0" d="M16.6,145.2c0,6.6,5.1,9.2,11,9.2c3.8,0,9.7-1.1,9.7-6.2c0-5.4-7.4-6.3-14.7-8.2c-7.4-2-14.8-4.8-14.8-14.1  c0-10.2,9.6-15,18.6-15c10.4,0,19.9,4.5,19.9,16H35.6c-0.4-6-4.6-7.5-9.8-7.5c-3.5,0-7.5,1.5-7.5,5.6c0,3.8,2.4,4.3,14.8,7.5  c3.6,0.9,14.8,3.2,14.8,14.5c0,9.1-7.2,15.9-20.7,15.9c-11,0-21.3-5.4-21.2-17.7L16.6,145.2L16.6,145.2z"/>
<path class="st0" d="M60.5,146.1c0.3,6.3,3.3,9.1,8.8,9.1c4,0,7.2-2.4,7.8-4.7h8.7C83,159,77.1,162.7,69,162.7  c-11.3,0-18.4-7.8-18.4-18.9c0-10.8,7.4-19,18.4-19c12.2,0,18.2,10.3,17.5,21.4L60.5,146.1L60.5,146.1L60.5,146.1z M76.6,139.8  c-0.9-5-3.1-7.6-7.9-7.6c-6.3,0-8.1,4.9-8.2,7.6H76.6L76.6,139.8z"/>
<path class="st0" d="M90.1,136.8c0.6-9.3,8.8-12,16.9-12c7.2,0,15.8,1.6,15.8,10.2v18.7c0,3.3,0.3,6.5,1.3,8h-10  c-0.4-1.1-0.6-2.3-0.7-3.5c-3.1,3.3-7.7,4.5-12.1,4.5c-6.8,0-12.2-3.4-12.2-10.8c0-8.1,6.1-10.1,12.2-10.9  c6.1-0.9,11.7-0.7,11.7-4.7c0-4.2-2.9-4.9-6.4-4.9c-3.8,0-6.2,1.5-6.5,5.4L90.1,136.8L90.1,136.8L90.1,136.8z M113,144.1  c-1.7,1.5-5.2,1.5-8.2,2.1c-3.1,0.6-5.9,1.7-5.9,5.3c0,3.7,2.9,4.6,6.1,4.6c7.7,0,8-6.1,8-8.3L113,144.1L113,144.1z"/>
<path class="st0" d="M162.8,159.4c0,5.9-2.1,15.9-18.7,15.9c-7.1,0-15.4-3.3-15.9-11.5h9.8c0.9,3.7,3.9,4.9,7.4,4.9  c5.5,0,8-3.8,7.9-8.9v-4.7h-0.1c-2.2,3.8-6.5,5.6-10.8,5.6c-10.8,0-15.4-8.2-15.4-18.1c0-9.3,5.4-17.8,15.4-17.8  c4.7,0,8.3,1.6,10.7,5.8h0.1v-4.8h9.4L162.8,159.4L162.8,159.4L162.8,159.4z M153.4,143.3c0-5.8-2-11.1-8.4-11.1  c-5.6,0-8,4.9-8,10.2c0,5.2,1.9,10.8,8,10.8C150.6,153.2,153.4,148.4,153.4,143.3L153.4,143.3z"/>
<path class="st0" d="M168.6,136.8c0.6-9.3,8.8-12,16.9-12c7.2,0,15.8,1.6,15.8,10.2v18.7c0,3.3,0.4,6.5,1.3,8h-10  c-0.4-1.1-0.6-2.3-0.7-3.5c-3.1,3.3-7.7,4.5-12.1,4.5c-6.8,0-12.2-3.4-12.2-10.8c0-8.1,6.1-10.1,12.2-10.9  c6.1-0.9,11.7-0.7,11.7-4.7c0-4.2-2.9-4.9-6.4-4.9c-3.8,0-6.2,1.5-6.5,5.4L168.6,136.8L168.6,136.8L168.6,136.8z M191.4,144.1  c-1.7,1.5-5.2,1.5-8.2,2.1c-3.1,0.6-5.8,1.7-5.8,5.3c0,3.7,2.8,4.6,6.1,4.6c7.7,0,8-6.1,8-8.3L191.4,144.1L191.4,144.1z"/>
<path class="st0" d="M219.7,125.7h7.2v6.6h-7.2v17.8c0,3.3,0.8,4.2,4.2,4.2c1,0,2-0.1,3.1-0.3v7.7c-1.7,0.3-3.8,0.3-5.8,0.3  c-6.1,0-11.3-1.4-11.3-8.6v-21.2h-6v-6.6h6v-10.8h9.9L219.7,125.7L219.7,125.7z"/>
<path class="st0" d="M238.1,146.1c0.3,6.3,3.3,9.1,8.8,9.1c4,0,7.2-2.4,7.8-4.7h8.7c-2.8,8.5-8.7,12.1-16.8,12.1  c-11.3,0-18.4-7.8-18.4-18.9c0-10.8,7.4-19,18.4-19c12.2,0,18.2,10.3,17.5,21.4L238.1,146.1L238.1,146.1L238.1,146.1z M254.2,139.8  c-0.9-5-3.1-7.6-7.9-7.6c-6.3,0-8.1,4.9-8.2,7.6H254.2L254.2,139.8z"/>
<path class="st0" d="M372.9,73.2c-17.6,4.7-29.9,20.7-29.9,38.9c0,22.2,18.1,40.3,40.3,40.3c15.6,0,29.9-9.1,36.5-23.3  c1.1-2.4,0.1-5.3-2.3-6.4c-2.4-1.1-5.2-0.1-6.4,2.3c-5,10.8-16,17.7-27.8,17.7c-16.9,0-30.7-13.8-30.7-30.7  c0-13.9,9.4-26.1,22.8-29.7c2.6-0.7,4.1-3.3,3.4-5.9C378.1,74,375.4,72.5,372.9,73.2L372.9,73.2z"/>
<path class="st0" d="M327.2,112.1c0,30.9,25.2,56.1,56.1,56.1c11.6,0,22.7-3.5,32.2-10.1c2.2-1.5,2.7-4.5,1.2-6.7  c-1.5-2.2-4.5-2.7-6.7-1.2c-7.8,5.5-17.1,8.4-26.7,8.4c-25.6,0-46.5-20.9-46.5-46.5c0-25.6,20.9-46.5,46.5-46.5  c4.1,0,8.1,0.5,12,1.6c2.6,0.7,5.2-0.8,5.9-3.4c0.7-2.6-0.8-5.2-3.4-5.9c-4.7-1.3-9.6-1.9-14.5-1.9C352.4,56,327.2,81.2,327.2,112.1  L327.2,112.1z"/>
<path class="st0" d="M295.7,112.1c0,33.9,19.9,65.1,50.6,79.4c2.4,1.1,5.2,0.1,6.4-2.3c1.1-2.4,0.1-5.3-2.3-6.4  c-27.4-12.8-45.1-40.6-45.1-70.7c0-43,35-78.1,78-78.1c35.3,0,66.3,23.8,75.4,57.8c0.7,2.6,3.3,4.1,5.9,3.4c2.6-0.7,4.1-3.3,3.4-5.9  c-10.2-38.2-45-65-84.6-65C335,24.5,295.7,63.8,295.7,112.1L295.7,112.1z"/>
<path class="st0" d="M311.5,112.1c0,39.6,32.2,71.9,71.9,71.9c2,0,4-0.1,6.3-0.3c2.6-0.2,4.6-2.6,4.4-5.2c-0.2-2.6-2.5-4.6-5.2-4.4  c-2,0.2-3.7,0.3-5.4,0.3c-34.3,0-62.3-27.9-62.3-62.3c0-34.3,27.9-62.3,62.3-62.3c16.6,0,32.3,6.5,44,18.2c1.9,1.9,4.9,1.9,6.8,0  c1.9-1.9,1.9-4.9,0-6.8c-13.6-13.6-31.6-21-50.8-21C343.7,40.3,311.5,72.5,311.5,112.1L311.5,112.1z"/>
<path class="st0" d="M486.7,112.1c0-57-46.4-103.4-103.4-103.4c-57,0-103.4,46.4-103.4,103.4c0,21.4,6.5,41.9,18.7,59.3  c1.5,2.2,4.5,2.7,6.7,1.2c2.2-1.5,2.7-4.5,1.2-6.7c-11.1-15.8-17-34.4-17-53.8c0-51.7,42.1-93.8,93.8-93.8  c51.7,0,93.8,42.1,93.8,93.8c0,8.7-1.2,17.4-3.7,25.9c-0.7,2.5,0.7,5.2,3.3,5.9c2.5,0.7,5.2-0.7,5.9-3.3  C485.4,131.3,486.7,121.7,486.7,112.1L486.7,112.1z"/>
</svg>